<?xml version="1.0" standalone="no"?>
<!DOCTYPE svg PUBLIC "-//W3C//DTD SVG 20010904//EN"
 "http://www.w3.org/TR/2001/REC-SVG-20010904/DTD/svg10.dtd">
<svg version="1.0" xmlns="http://www.w3.org/2000/svg"
 width="500.000000pt" height="500.000000pt" viewBox="0 0 500.000000 500.000000"
 preserveAspectRatio="xMidYMid meet">
<metadata>
Created by potrace 1.11, written by Peter Selinger 2001-2013
</metadata>
<g transform="translate(0.000000,500.000000) scale(0.100000,-0.100000)"
fill="#000000" stroke="none">
<path d="M382 4984 c-177 -47 -316 -181 -364 -352 -17 -64 -18 -122 -17 -1187
1 -1246 1 -1236 69 -1530 55 -237 148 -468 277 -685 63 -107 61 -104 141 -214
412 -566 1054 -930 1772 -1005 146 -15 479 -5 620 19 166 27 153 25 249 50
335 86 665 251 939 471 123 99 275 249 357 352 17 21 40 50 53 65 33 40 164
237 204 307 142 252 257 597 293 875 4 30 10 64 13 75 3 11 7 537 9 1169 5
1282 7 1236 -63 1352 -65 108 -150 179 -269 224 -75 28 -204 35 -270 16 -25
-8 -49 -15 -53 -16 -75 -22 -152 -81 -305 -234 -81 -80 -149 -146 -152 -146
-3 0 -50 26 -103 58 -198 119 -498 244 -662 276 -14 3 -34 7 -45 10 -39 9
-170 35 -205 40 -185 28 -571 28 -734 1 -192 -32 -295 -57 -453 -111 -173 -58
-317 -128 -544 -262 -25 -15 -26 -15 -183 142 -160 158 -228 209 -316 235 -63
20 -195 22 -258 5z m249 -216 c41 -19 94 -65 222 -191 234 -232 241 -233 458
-108 307 176 644 289 959 319 138 14 487 5 560 -13 8 -2 35 -7 60 -10 93 -13
309 -74 423 -119 130 -51 303 -136 393 -194 104 -67 176 -86 238 -62 14 5 105
89 202 186 205 205 226 218 349 219 68 0 89 -4 137 -28 60 -30 118 -88 146
-147 16 -32 17 -130 17 -1170 0 -987 -4 -1274 -19 -1299 -2 -3 -7 -26 -10 -51
-26 -189 -99 -417 -202 -625 -142 -288 -310 -508 -564 -734 -70 -63 -217 -169
-320 -231 -93 -56 -298 -160 -315 -160 -4 0 -21 -6 -38 -14 -70 -31 -285 -95
-376 -111 -14 -2 -48 -9 -76 -14 -169 -32 -488 -35 -680 -6 -925 140 -1687
822 -1921 1720 -10 39 -43 198 -49 235 -3 25 -9 59 -12 75 -3 17 -7 542 -10
1168 -4 1248 -6 1207 54 1273 109 118 244 152 374 92z"/>
<path d="M1260 2885 c-110 -31 -201 -103 -254 -199 -91 -166 -68 -349 60 -486
78 -83 184 -128 305 -128 191 0 358 135 402 323 45 194 -53 389 -239 471 -74
33 -195 41 -274 19z m205 -219 c80 -43 128 -141 111 -229 -24 -129 -186 -208
-303 -149 -70 36 -123 119 -123 192 0 85 65 171 149 200 63 21 108 17 166 -14z"/>
<path d="M3530 2887 c-132 -37 -232 -127 -285 -257 -25 -63 -29 -199 -7 -265
37 -110 112 -199 210 -249 63 -32 90 -38 182 -42 218 -8 400 156 417 378 12
154 -66 310 -195 388 -86 53 -227 73 -322 47z m187 -213 c47 -17 96 -67 118
-121 31 -73 10 -166 -51 -227 -104 -103 -283 -65 -345 73 -24 55 -24 107 0
162 27 59 69 98 132 119 56 19 80 18 146 -6z"/>
<path d="M1599 1562 c-12 -2 -15 -12 -13 -40 18 -188 146 -355 323 -423 66
-25 103 -31 181 -31 129 0 234 45 332 142 l66 66 40 -46 c108 -125 281 -185
452 -155 67 11 179 66 234 116 102 90 178 256 167 364 -1 6 -39 10 -96 10
l-95 0 -1 -35 c-1 -81 -34 -148 -96 -199 -82 -68 -222 -83 -319 -36 -91 45
-145 115 -169 220 l-12 50 -94 0 -94 0 -11 -50 c-16 -75 -41 -120 -91 -165
-94 -87 -219 -109 -326 -56 -96 46 -177 162 -177 250 0 20 -5 21 -92 21 -51 0
-100 -1 -109 -3z"/>
</g>
</svg>
